<mxfile host="app.diagrams.net" modified="2022-03-16T19:38:19.048Z" agent="5.0 (Windows NT 10.0; Win64; x64) AppleWebKit/537.36 (KHTML, like Gecko) Chrome/98.0.4758.109 Safari/537.36 OPR/84.0.4316.31" etag="IACMKn8BqoPQBzoUU9vF" version="17.1.3" type="github">
  <diagram id="5oC_geMPYcYVtz29_w5K" name="Page-1">
    <mxGraphModel dx="998" dy="548" grid="1" gridSize="10" guides="1" tooltips="1" connect="1" arrows="1" fold="1" page="1" pageScale="1" pageWidth="827" pageHeight="1169" math="0" shadow="0">
      <root>
        <mxCell id="0" />
        <mxCell id="1" parent="0" />
        <mxCell id="w6-mkcl9ADS96GO8RvZK-1" value="" style="ellipse;whiteSpace=wrap;html=1;" parent="1" vertex="1">
          <mxGeometry x="85" y="10" width="120" height="80" as="geometry" />
        </mxCell>
        <mxCell id="w6-mkcl9ADS96GO8RvZK-2" value="Start" style="text;html=1;align=center;verticalAlign=middle;resizable=0;points=[];autosize=1;strokeColor=none;fillColor=none;fontSize=16;" parent="1" vertex="1">
          <mxGeometry x="120" y="40" width="50" height="20" as="geometry" />
        </mxCell>
        <mxCell id="w6-mkcl9ADS96GO8RvZK-3" value="" style="ellipse;whiteSpace=wrap;html=1;" parent="1" vertex="1">
          <mxGeometry x="335" y="720" width="120" height="80" as="geometry" />
        </mxCell>
        <mxCell id="w6-mkcl9ADS96GO8RvZK-4" value="End" style="text;html=1;align=center;verticalAlign=middle;resizable=0;points=[];autosize=1;strokeColor=none;fillColor=none;fontSize=16;" parent="1" vertex="1">
          <mxGeometry x="375" y="750" width="40" height="20" as="geometry" />
        </mxCell>
        <mxCell id="w6-mkcl9ADS96GO8RvZK-6" value="" style="shape=parallelogram;perimeter=parallelogramPerimeter;whiteSpace=wrap;html=1;fixedSize=1;fontSize=16;" parent="1" vertex="1">
          <mxGeometry x="15" y="140" width="260" height="60" as="geometry" />
        </mxCell>
        <mxCell id="w6-mkcl9ADS96GO8RvZK-7" value="Read a,b,c,d,e,f like aX²+bX+c=dX²+eX+f" style="text;html=1;strokeColor=none;fillColor=none;align=center;verticalAlign=middle;whiteSpace=wrap;rounded=0;fontSize=16;" parent="1" vertex="1">
          <mxGeometry x="55" y="155" width="190" height="30" as="geometry" />
        </mxCell>
        <mxCell id="w6-mkcl9ADS96GO8RvZK-8" value="" style="endArrow=classic;html=1;rounded=0;fontSize=16;exitX=0.5;exitY=1;exitDx=0;exitDy=0;entryX=0.5;entryY=0;entryDx=0;entryDy=0;" parent="1" source="w6-mkcl9ADS96GO8RvZK-1" target="w6-mkcl9ADS96GO8RvZK-6" edge="1">
          <mxGeometry width="50" height="50" relative="1" as="geometry">
            <mxPoint x="390" y="280" as="sourcePoint" />
            <mxPoint x="440" y="230" as="targetPoint" />
            <Array as="points" />
          </mxGeometry>
        </mxCell>
        <mxCell id="w6-mkcl9ADS96GO8RvZK-10" value="" style="rounded=0;whiteSpace=wrap;html=1;fontSize=16;" parent="1" vertex="1">
          <mxGeometry x="30" y="240" width="230" height="60" as="geometry" />
        </mxCell>
        <mxCell id="w6-mkcl9ADS96GO8RvZK-11" value="x=a-d&amp;nbsp; y=b-e and z=c-f" style="text;html=1;strokeColor=none;fillColor=none;align=center;verticalAlign=middle;whiteSpace=wrap;rounded=0;fontSize=16;" parent="1" vertex="1">
          <mxGeometry x="50" y="255" width="190" height="30" as="geometry" />
        </mxCell>
        <mxCell id="w6-mkcl9ADS96GO8RvZK-12" value="" style="endArrow=classic;html=1;rounded=0;fontSize=16;exitX=0.5;exitY=1;exitDx=0;exitDy=0;entryX=0.5;entryY=0;entryDx=0;entryDy=0;" parent="1" source="w6-mkcl9ADS96GO8RvZK-6" target="w6-mkcl9ADS96GO8RvZK-10" edge="1">
          <mxGeometry width="50" height="50" relative="1" as="geometry">
            <mxPoint x="390" y="250" as="sourcePoint" />
            <mxPoint x="150" y="240" as="targetPoint" />
          </mxGeometry>
        </mxCell>
        <mxCell id="w6-mkcl9ADS96GO8RvZK-15" value="" style="rounded=0;whiteSpace=wrap;html=1;fontSize=16;" parent="1" vertex="1">
          <mxGeometry x="30" y="340" width="230" height="60" as="geometry" />
        </mxCell>
        <mxCell id="w6-mkcl9ADS96GO8RvZK-16" value="delta=y*y-4*x*z" style="text;html=1;strokeColor=none;fillColor=none;align=center;verticalAlign=middle;whiteSpace=wrap;rounded=0;fontSize=16;" parent="1" vertex="1">
          <mxGeometry x="90" y="355" width="120" height="30" as="geometry" />
        </mxCell>
        <mxCell id="w6-mkcl9ADS96GO8RvZK-17" value="" style="endArrow=classic;html=1;rounded=0;fontSize=16;exitX=0.5;exitY=1;exitDx=0;exitDy=0;entryX=0.5;entryY=0;entryDx=0;entryDy=0;" parent="1" source="w6-mkcl9ADS96GO8RvZK-10" target="w6-mkcl9ADS96GO8RvZK-15" edge="1">
          <mxGeometry width="50" height="50" relative="1" as="geometry">
            <mxPoint x="390" y="250" as="sourcePoint" />
            <mxPoint x="440" y="200" as="targetPoint" />
          </mxGeometry>
        </mxCell>
        <mxCell id="w6-mkcl9ADS96GO8RvZK-18" value="" style="rhombus;whiteSpace=wrap;html=1;fontSize=16;" parent="1" vertex="1">
          <mxGeometry x="90" y="470" width="110" height="80" as="geometry" />
        </mxCell>
        <mxCell id="w6-mkcl9ADS96GO8RvZK-19" value="if delta==0" style="text;html=1;strokeColor=none;fillColor=none;align=center;verticalAlign=middle;whiteSpace=wrap;rounded=0;fontSize=16;" parent="1" vertex="1">
          <mxGeometry x="115" y="495" width="60" height="30" as="geometry" />
        </mxCell>
        <mxCell id="w6-mkcl9ADS96GO8RvZK-20" value="" style="endArrow=classic;html=1;rounded=0;fontSize=16;exitX=0.5;exitY=1;exitDx=0;exitDy=0;" parent="1" source="w6-mkcl9ADS96GO8RvZK-15" edge="1">
          <mxGeometry width="50" height="50" relative="1" as="geometry">
            <mxPoint x="390" y="240" as="sourcePoint" />
            <mxPoint x="145" y="470" as="targetPoint" />
            <Array as="points">
              <mxPoint x="145" y="460" />
            </Array>
          </mxGeometry>
        </mxCell>
        <mxCell id="w6-mkcl9ADS96GO8RvZK-21" value="" style="shape=parallelogram;perimeter=parallelogramPerimeter;whiteSpace=wrap;html=1;fixedSize=1;fontSize=16;" parent="1" vertex="1">
          <mxGeometry x="85" y="600" width="120" height="60" as="geometry" />
        </mxCell>
        <mxCell id="w6-mkcl9ADS96GO8RvZK-22" value="Print &lt;br&gt;root=-y/2*x" style="text;html=1;strokeColor=none;fillColor=none;align=center;verticalAlign=middle;whiteSpace=wrap;rounded=0;fontSize=16;" parent="1" vertex="1">
          <mxGeometry x="90" y="615" width="110" height="30" as="geometry" />
        </mxCell>
        <mxCell id="w6-mkcl9ADS96GO8RvZK-23" value="" style="endArrow=classic;html=1;rounded=0;fontSize=16;exitX=0.5;exitY=1;exitDx=0;exitDy=0;entryX=0.5;entryY=0;entryDx=0;entryDy=0;" parent="1" source="w6-mkcl9ADS96GO8RvZK-18" target="w6-mkcl9ADS96GO8RvZK-21" edge="1">
          <mxGeometry width="50" height="50" relative="1" as="geometry">
            <mxPoint x="390" y="240" as="sourcePoint" />
            <mxPoint x="140" y="600" as="targetPoint" />
          </mxGeometry>
        </mxCell>
        <mxCell id="w6-mkcl9ADS96GO8RvZK-24" value="YES" style="text;html=1;strokeColor=none;fillColor=none;align=center;verticalAlign=middle;whiteSpace=wrap;rounded=0;fontSize=16;" parent="1" vertex="1">
          <mxGeometry x="145" y="555" width="60" height="30" as="geometry" />
        </mxCell>
        <mxCell id="w6-mkcl9ADS96GO8RvZK-25" value="" style="endArrow=classic;html=1;rounded=0;fontSize=16;entryX=0;entryY=0.5;entryDx=0;entryDy=0;" parent="1" target="w6-mkcl9ADS96GO8RvZK-3" edge="1">
          <mxGeometry width="50" height="50" relative="1" as="geometry">
            <mxPoint x="160" y="760" as="sourcePoint" />
            <mxPoint x="440" y="190" as="targetPoint" />
          </mxGeometry>
        </mxCell>
        <mxCell id="w6-mkcl9ADS96GO8RvZK-28" value="" style="rhombus;whiteSpace=wrap;html=1;fontSize=16;" parent="1" vertex="1">
          <mxGeometry x="345" y="470" width="110" height="80" as="geometry" />
        </mxCell>
        <mxCell id="w6-mkcl9ADS96GO8RvZK-32" value="" style="shape=parallelogram;perimeter=parallelogramPerimeter;whiteSpace=wrap;html=1;fixedSize=1;fontSize=16;" parent="1" vertex="1">
          <mxGeometry x="280" y="600" width="230" height="95" as="geometry" />
        </mxCell>
        <mxCell id="w6-mkcl9ADS96GO8RvZK-34" value="if delta&amp;gt;0" style="text;html=1;strokeColor=none;fillColor=none;align=center;verticalAlign=middle;whiteSpace=wrap;rounded=0;fontSize=16;" parent="1" vertex="1">
          <mxGeometry x="370" y="495" width="60" height="30" as="geometry" />
        </mxCell>
        <mxCell id="w6-mkcl9ADS96GO8RvZK-38" value="Print&lt;br&gt;&amp;nbsp;root1=(-y+sqrt(delta))/2*x&lt;br&gt;&amp;nbsp;root2=(-y-sqrt(delta))/2*x" style="text;html=1;strokeColor=none;fillColor=none;align=center;verticalAlign=middle;whiteSpace=wrap;rounded=0;fontSize=16;" parent="1" vertex="1">
          <mxGeometry x="295" y="632.5" width="210" height="30" as="geometry" />
        </mxCell>
        <mxCell id="w6-mkcl9ADS96GO8RvZK-40" value="YES" style="text;html=1;strokeColor=none;fillColor=none;align=center;verticalAlign=middle;whiteSpace=wrap;rounded=0;fontSize=16;" parent="1" vertex="1">
          <mxGeometry x="395" y="550" width="60" height="30" as="geometry" />
        </mxCell>
        <mxCell id="w6-mkcl9ADS96GO8RvZK-41" value="" style="endArrow=none;html=1;rounded=0;fontSize=16;entryX=0.615;entryY=1.013;entryDx=0;entryDy=0;entryPerimeter=0;" parent="1" target="w6-mkcl9ADS96GO8RvZK-21" edge="1">
          <mxGeometry width="50" height="50" relative="1" as="geometry">
            <mxPoint x="160" y="760" as="sourcePoint" />
            <mxPoint x="440" y="600" as="targetPoint" />
          </mxGeometry>
        </mxCell>
        <mxCell id="w6-mkcl9ADS96GO8RvZK-42" value="" style="endArrow=classic;html=1;rounded=0;fontSize=16;exitX=1;exitY=0.5;exitDx=0;exitDy=0;" parent="1" source="w6-mkcl9ADS96GO8RvZK-18" target="w6-mkcl9ADS96GO8RvZK-28" edge="1">
          <mxGeometry width="50" height="50" relative="1" as="geometry">
            <mxPoint x="390" y="450" as="sourcePoint" />
            <mxPoint x="440" y="400" as="targetPoint" />
          </mxGeometry>
        </mxCell>
        <mxCell id="w6-mkcl9ADS96GO8RvZK-43" value="" style="endArrow=classic;html=1;rounded=0;fontSize=16;exitX=0.5;exitY=1;exitDx=0;exitDy=0;" parent="1" source="w6-mkcl9ADS96GO8RvZK-28" edge="1">
          <mxGeometry width="50" height="50" relative="1" as="geometry">
            <mxPoint x="390" y="630" as="sourcePoint" />
            <mxPoint x="400" y="600" as="targetPoint" />
          </mxGeometry>
        </mxCell>
        <mxCell id="w6-mkcl9ADS96GO8RvZK-44" value="" style="endArrow=classic;html=1;rounded=0;fontSize=16;exitX=0.5;exitY=1;exitDx=0;exitDy=0;entryX=0.5;entryY=0;entryDx=0;entryDy=0;" parent="1" source="w6-mkcl9ADS96GO8RvZK-32" target="w6-mkcl9ADS96GO8RvZK-3" edge="1">
          <mxGeometry width="50" height="50" relative="1" as="geometry">
            <mxPoint x="390" y="650" as="sourcePoint" />
            <mxPoint x="440" y="600" as="targetPoint" />
          </mxGeometry>
        </mxCell>
        <mxCell id="w6-mkcl9ADS96GO8RvZK-45" value="NO&lt;br&gt;" style="text;html=1;strokeColor=none;fillColor=none;align=center;verticalAlign=middle;whiteSpace=wrap;rounded=0;fontSize=16;" parent="1" vertex="1">
          <mxGeometry x="230" y="480" width="60" height="30" as="geometry" />
        </mxCell>
        <mxCell id="w6-mkcl9ADS96GO8RvZK-46" value="" style="shape=parallelogram;perimeter=parallelogramPerimeter;whiteSpace=wrap;html=1;fixedSize=1;fontSize=16;" parent="1" vertex="1">
          <mxGeometry x="540" y="600" width="230" height="95" as="geometry" />
        </mxCell>
        <mxCell id="w6-mkcl9ADS96GO8RvZK-47" value="Print &lt;br&gt;root1=(-y+i*sqrt(-delta))/2*x&lt;br&gt;root2=(-y-i*sqrt(-delta))/2*x" style="text;html=1;strokeColor=none;fillColor=none;align=center;verticalAlign=middle;whiteSpace=wrap;rounded=0;fontSize=16;" parent="1" vertex="1">
          <mxGeometry x="555" y="623.75" width="200" height="47.5" as="geometry" />
        </mxCell>
        <mxCell id="w6-mkcl9ADS96GO8RvZK-48" value="" style="endArrow=none;html=1;rounded=0;fontSize=16;exitX=1;exitY=0.5;exitDx=0;exitDy=0;" parent="1" source="w6-mkcl9ADS96GO8RvZK-28" edge="1">
          <mxGeometry width="50" height="50" relative="1" as="geometry">
            <mxPoint x="390" y="650" as="sourcePoint" />
            <mxPoint x="660" y="510" as="targetPoint" />
          </mxGeometry>
        </mxCell>
        <mxCell id="w6-mkcl9ADS96GO8RvZK-49" value="" style="endArrow=classic;html=1;rounded=0;fontSize=16;" parent="1" target="w6-mkcl9ADS96GO8RvZK-46" edge="1">
          <mxGeometry width="50" height="50" relative="1" as="geometry">
            <mxPoint x="660" y="510" as="sourcePoint" />
            <mxPoint x="440" y="600" as="targetPoint" />
          </mxGeometry>
        </mxCell>
        <mxCell id="w6-mkcl9ADS96GO8RvZK-50" value="NO&lt;br&gt;" style="text;html=1;strokeColor=none;fillColor=none;align=center;verticalAlign=middle;whiteSpace=wrap;rounded=0;fontSize=16;" parent="1" vertex="1">
          <mxGeometry x="520" y="480" width="60" height="30" as="geometry" />
        </mxCell>
        <mxCell id="w6-mkcl9ADS96GO8RvZK-51" value="" style="endArrow=classic;html=1;rounded=0;fontSize=16;entryX=1;entryY=0.5;entryDx=0;entryDy=0;" parent="1" target="w6-mkcl9ADS96GO8RvZK-3" edge="1">
          <mxGeometry width="50" height="50" relative="1" as="geometry">
            <mxPoint x="650" y="760" as="sourcePoint" />
            <mxPoint x="540" y="740" as="targetPoint" />
          </mxGeometry>
        </mxCell>
        <mxCell id="w6-mkcl9ADS96GO8RvZK-52" value="" style="endArrow=none;html=1;rounded=0;fontSize=16;entryX=0.5;entryY=1;entryDx=0;entryDy=0;" parent="1" target="w6-mkcl9ADS96GO8RvZK-46" edge="1">
          <mxGeometry width="50" height="50" relative="1" as="geometry">
            <mxPoint x="650" y="760" as="sourcePoint" />
            <mxPoint x="440" y="600" as="targetPoint" />
          </mxGeometry>
        </mxCell>
        <mxCell id="w6-mkcl9ADS96GO8RvZK-53" style="edgeStyle=orthogonalEdgeStyle;rounded=0;orthogonalLoop=1;jettySize=auto;html=1;exitX=0.5;exitY=1;exitDx=0;exitDy=0;fontSize=16;" parent="1" source="w6-mkcl9ADS96GO8RvZK-38" target="w6-mkcl9ADS96GO8RvZK-38" edge="1">
          <mxGeometry relative="1" as="geometry" />
        </mxCell>
      </root>
    </mxGraphModel>
  </diagram>
</mxfile>
